<?xml version="1.0" encoding="UTF-8"?>
<!DOCTYPE svg PUBLIC "-//W3C//DTD SVG 1.1//EN" "http://www.w3.org/Graphics/SVG/1.1/DTD/svg11.dtd">
<!-- Creator: CorelDRAW -->
<svg xmlns="http://www.w3.org/2000/svg" xml:space="preserve" width="120px" height="120px" version="1.1" style="shape-rendering:geometricPrecision; text-rendering:geometricPrecision; image-rendering:optimizeQuality; fill-rule:evenodd; clip-rule:evenodd"
viewBox="0 0 120 120"
 xmlns:xlink="http://www.w3.org/1999/xlink"
 xmlns:xodm="http://www.corel.com/coreldraw/odm/2003">
 <defs>
  <style type="text/css">
   <![CDATA[
    .str0 {stroke:#2F3E85;stroke-width:0.9;stroke-miterlimit:22.9256}
    .fil5 {fill:none;fill-rule:nonzero}
    .fil1 {fill:#2B2A29}
    .fil0 {fill:#2F3E85}
    .fil4 {fill:#FEFEFE;fill-rule:nonzero}
    .fil2 {fill:#2B2A29;fill-rule:nonzero}
    .fil3 {fill:#2F3E85;fill-rule:nonzero}
   ]]>
  </style>
 </defs>
 <g id="Слой_x0020_1">
  <metadata id="CorelCorpID_0Corel-Layer"/>
  <g id="_2540687680848">
   <rect class="fil0" x="43.83" y="39.46" width="23.45" height="15.34"/>
   <g>
    <path class="fil1" d="M73.23 83.64l-11.14 0 -3.28 0 0 -0.49c4.14,-0.65 7.63,-1.96 10.45,-3.93 4.4,-3.08 6.6,-7.5 6.6,-13.24 0,-5.36 -2.53,-9.42 -7.59,-12.17 -1.66,-0.92 -4.82,-2.03 -9.46,-3.34l0 -4.57 15.65 0c-0.66,-4.84 -2.67,-8.68 -6.05,-11.53 -2.53,-2.12 -5.73,-3.52 -9.6,-4.2l0 -0.5 3.28 0 11.14 0 8.89 0 8.93 33.65 8.92 -33.65 20.03 0 0 53.97 -14.9 0 -0.07 -29.38 -8.5 27.65 -11.25 -0.07 -8.36 -27.73 0.07 29.53 -3.76 0z"/>
    <path id="_1" class="fil2" d="M62.09 83.59l11.14 0 0 0.09 -11.14 0 0 0 0 -0.09zm-3.28 0l3.28 0 0 0.09 -3.28 0 -0.05 -0.04 0.05 -0.05zm0 0.09l-0.05 0 0 -0.04 0.05 0.04zm0.04 -0.53l0 0.49 -0.09 0 0 -0.49 0.04 -0.04 0.05 0.04zm-0.09 0l0 -0.04 0.04 0 -0.04 0.04zm10.47 -3.97l0.05 0.08 0 0 -0.26 0.18 -0.27 0.18 -0.28 0.18 -0.28 0.17 -0.28 0.17 -0.29 0.16 -0.29 0.16 -0.29 0.15 -0.3 0.16 -0.3 0.14 -0.31 0.15 -0.31 0.14 -0.31 0.14 -0.32 0.13 -0.32 0.13 -0.33 0.12 -0.32 0.12 -0.34 0.12 -0.33 0.11 -0.35 0.11 -0.34 0.11 -0.35 0.1 -0.35 0.1 -0.36 0.09 -0.36 0.09 -0.36 0.09 -0.37 0.08 -0.37 0.08 -0.38 0.07 -0.37 0.08 -0.39 0.06 -0.38 0.07 -0.02 -0.09 0.39 -0.07 0.38 -0.06 0.38 -0.07 0.37 -0.08 0.37 -0.07 0.37 -0.09 0.36 -0.08 0.36 -0.09 0.36 -0.1 0.35 -0.09 0.34 -0.11 0.35 -0.1 0.34 -0.11 0.33 -0.11 0.33 -0.12 0.33 -0.12 0.33 -0.13 0.32 -0.12 0.31 -0.14 0.32 -0.13 0.3 -0.14 0.31 -0.15 0.3 -0.14 0.3 -0.16 0.29 -0.15 0.29 -0.16 0.28 -0.16 0.28 -0.17 0.28 -0.17 0.28 -0.18 0.27 -0.17 0.26 -0.19 0 0zm0.05 0.08l0 0 0 0 0 0zm6.54 -13.28l0.09 0 0 0 -0.01 0.54 -0.02 0.52 -0.03 0.52 -0.04 0.52 -0.06 0.5 -0.07 0.5 -0.09 0.49 -0.1 0.48 -0.1 0.47 -0.13 0.47 -0.13 0.45 -0.15 0.45 -0.16 0.45 -0.18 0.43 -0.19 0.43 -0.2 0.42 -0.21 0.41 -0.23 0.4 -0.24 0.4 -0.25 0.38 -0.27 0.39 -0.27 0.37 -0.29 0.36 -0.31 0.36 -0.32 0.35 -0.33 0.34 -0.34 0.33 -0.35 0.33 -0.37 0.31 -0.38 0.31 -0.4 0.3 -0.41 0.3 -0.05 -0.08 0.41 -0.29 0.39 -0.3 0.38 -0.31 0.37 -0.31 0.35 -0.33 0.34 -0.33 0.33 -0.34 0.31 -0.34 0.31 -0.36 0.29 -0.36 0.27 -0.37 0.26 -0.37 0.26 -0.39 0.23 -0.39 0.23 -0.4 0.21 -0.41 0.2 -0.42 0.19 -0.42 0.17 -0.44 0.16 -0.43 0.15 -0.45 0.13 -0.46 0.13 -0.46 0.11 -0.47 0.09 -0.48 0.09 -0.49 0.07 -0.49 0.06 -0.5 0.04 -0.51 0.03 -0.52 0.02 -0.53 0.01 -0.53 0 0zm-7.57 -12.13l0.04 -0.08 0 0 0.47 0.26 0.46 0.27 0.43 0.28 0.43 0.28 0.41 0.3 0.39 0.3 0.38 0.31 0.36 0.31 0.35 0.33 0.34 0.33 0.32 0.34 0.3 0.35 0.29 0.35 0.28 0.36 0.26 0.37 0.24 0.38 0.23 0.39 0.22 0.39 0.2 0.4 0.19 0.41 0.17 0.42 0.15 0.42 0.15 0.43 0.12 0.44 0.11 0.45 0.1 0.45 0.08 0.47 0.07 0.46 0.05 0.48 0.04 0.49 0.02 0.49 0.01 0.5 -0.09 0 -0.01 -0.5 -0.02 -0.49 -0.04 -0.48 -0.05 -0.47 -0.07 -0.47 -0.08 -0.46 -0.09 -0.45 -0.12 -0.45 -0.12 -0.43 -0.14 -0.43 -0.15 -0.42 -0.18 -0.42 -0.18 -0.4 -0.2 -0.4 -0.21 -0.39 -0.23 -0.38 -0.25 -0.38 -0.25 -0.36 -0.28 -0.36 -0.29 -0.36 -0.3 -0.34 -0.32 -0.34 -0.33 -0.33 -0.35 -0.32 -0.36 -0.31 -0.38 -0.31 -0.39 -0.3 -0.4 -0.29 -0.43 -0.29 -0.43 -0.27 -0.45 -0.27 -0.47 -0.26 0 0zm0 0l0 0 0 0 0 0zm-9.49 -3.38l0.09 0 -0.03 -0.05 0.43 0.13 0.43 0.12 0.41 0.12 0.4 0.12 0.4 0.11 0.39 0.12 0.38 0.12 0.37 0.11 0.36 0.11 0.35 0.12 0.35 0.11 0.33 0.11 0.33 0.1 0.32 0.11 0.3 0.11 0.3 0.1 0.3 0.11 0.28 0.1 0.27 0.1 0.27 0.1 0.26 0.1 0.24 0.1 0.24 0.1 0.23 0.09 0.23 0.1 0.21 0.09 0.2 0.09 0.2 0.1 0.19 0.09 0.17 0.08 0.17 0.09 0.16 0.09 -0.04 0.08 -0.16 -0.09 -0.17 -0.09 -0.17 -0.08 -0.19 -0.09 -0.19 -0.1 -0.21 -0.09 -0.21 -0.09 -0.22 -0.1 -0.23 -0.09 -0.24 -0.1 -0.25 -0.1 -0.25 -0.09 -0.27 -0.1 -0.27 -0.11 -0.28 -0.1 -0.3 -0.1 -0.29 -0.11 -0.31 -0.1 -0.32 -0.11 -0.33 -0.11 -0.33 -0.11 -0.35 -0.11 -0.35 -0.11 -0.36 -0.11 -0.37 -0.12 -0.38 -0.11 -0.39 -0.12 -0.39 -0.12 -0.41 -0.12 -0.41 -0.12 -0.42 -0.12 -0.43 -0.12 -0.04 -0.04zm0.04 0.04l-0.04 -0.01 0 -0.03 0.04 0.04zm0.05 -4.61l0 4.57 -0.09 0 0 -4.57 0.05 -0.04 0.04 0.04zm-0.09 0l0 -0.04 0.05 0 -0.05 0.04zm15.7 0.05l-15.65 0 0 -0.09 15.65 0 0.04 0.04 -0.04 0.05zm0.04 -0.05l0.01 0.05 -0.05 0 0.04 -0.05zm-6.11 -11.49l0.05 -0.07 0 0 0.32 0.27 0.3 0.28 0.3 0.28 0.29 0.29 0.28 0.29 0.27 0.3 0.27 0.3 0.25 0.32 0.25 0.32 0.25 0.32 0.23 0.33 0.22 0.33 0.22 0.34 0.21 0.35 0.2 0.35 0.19 0.36 0.19 0.36 0.18 0.38 0.17 0.37 0.16 0.38 0.15 0.39 0.15 0.39 0.14 0.4 0.12 0.41 0.13 0.41 0.11 0.42 0.11 0.42 0.09 0.43 0.09 0.43 0.08 0.44 0.08 0.45 0.06 0.45 -0.09 0.01 -0.06 -0.45 -0.08 -0.44 -0.08 -0.44 -0.09 -0.43 -0.09 -0.43 -0.11 -0.42 -0.11 -0.42 -0.12 -0.41 -0.13 -0.4 -0.14 -0.4 -0.14 -0.39 -0.15 -0.38 -0.17 -0.38 -0.16 -0.38 -0.18 -0.37 -0.19 -0.36 -0.19 -0.35 -0.2 -0.36 -0.21 -0.34 -0.21 -0.34 -0.22 -0.33 -0.24 -0.33 -0.24 -0.32 -0.25 -0.32 -0.25 -0.31 -0.26 -0.3 -0.28 -0.3 -0.28 -0.29 -0.28 -0.29 -0.3 -0.28 -0.3 -0.27 -0.32 -0.27 0.01 0zm0.05 -0.07l0 0 0.12 0.1 -0.12 -0.1zm-9.68 -4.17l0.09 0 -0.03 -0.05 0.36 0.07 0.35 0.07 0.36 0.07 0.35 0.08 0.34 0.08 0.34 0.09 0.34 0.09 0.34 0.1 0.33 0.1 0.32 0.11 0.32 0.1 0.32 0.12 0.32 0.11 0.31 0.13 0.31 0.12 0.3 0.13 0.3 0.13 0.29 0.14 0.29 0.14 0.29 0.15 0.28 0.15 0.28 0.16 0.28 0.16 0.27 0.16 0.27 0.17 0.26 0.17 0.26 0.17 0.26 0.18 0.25 0.19 0.25 0.19 0.24 0.19 0.24 0.2 -0.05 0.07 -0.24 -0.2 -0.25 -0.19 -0.24 -0.19 -0.25 -0.18 -0.26 -0.18 -0.26 -0.18 -0.26 -0.17 -0.27 -0.16 -0.27 -0.17 -0.27 -0.16 -0.28 -0.15 -0.28 -0.15 -0.29 -0.15 -0.29 -0.14 -0.29 -0.13 -0.3 -0.14 -0.3 -0.13 -0.3 -0.12 -0.32 -0.12 -0.31 -0.12 -0.31 -0.11 -0.33 -0.11 -0.32 -0.1 -0.33 -0.1 -0.33 -0.1 -0.34 -0.09 -0.34 -0.09 -0.34 -0.08 -0.35 -0.08 -0.35 -0.07 -0.36 -0.07 -0.36 -0.07 -0.04 -0.04zm0.04 0.04l-0.04 -0.01 0 -0.03 0.04 0.04zm0.05 -0.54l0 0.5 -0.09 0 0 -0.5 0.05 -0.04 0.04 0.04zm-0.09 0l0 -0.04 0.05 0 -0.05 0.04zm3.33 0.05l-3.28 0 0 -0.09 3.28 0 0 0 0 0.09zm11.14 0l-11.14 0 0 -0.09 11.14 0 0 0 0 0.09zm8.89 0l-8.89 0 0 -0.09 8.89 0 0.05 0.03 -0.05 0.06zm0 -0.09l0.04 0 0.01 0.03 -0.05 -0.03zm8.88 33.71l-8.92 -33.65 0.09 -0.03 8.92 33.65 0 0.03 -0.09 0zm0.09 0l-0.04 0.16 -0.05 -0.16 0.09 0zm8.93 -33.65l-8.93 33.65 -0.09 -0.03 8.93 -33.65 0.04 -0.03 0.05 0.06zm-0.09 -0.03l0.01 -0.03 0.03 0 -0.04 0.03zm20.07 0.06l-20.03 0 0 -0.09 20.03 0 0.04 0.04 -0.04 0.05zm0 -0.09l0.04 0 0 0.04 -0.04 -0.04zm-0.04 54.01l0 -53.97 0.08 0 0 53.97 -0.04 0.04 -0.04 -0.04zm0.08 0l0 0.04 -0.04 0 0.04 -0.04zm-14.94 -0.05l14.9 0 0 0.09 -14.9 0 -0.04 -0.04 0.04 -0.05zm0 0.09l-0.04 0 0 -0.04 0.04 0.04zm-0.02 -29.42l0.07 29.38 -0.09 0 -0.07 -29.38 0 -0.02 0.09 0.02zm-0.09 -0.02l0.09 -0.28 0 0.3 -0.09 -0.02zm-8.5 27.66l8.5 -27.66 0.08 0.03 -8.5 27.65 -0.04 0.04 -0.04 -0.06zm0.08 0.02l-0.01 0.04 -0.03 0 0.04 -0.04zm-11.29 -0.13l11.25 0.08 0 0.09 -11.25 -0.08 -0.04 -0.03 0.04 -0.06zm0 0.09l-0.03 0 -0.01 -0.03 0.04 0.03zm-8.32 -27.79l8.37 27.73 -0.09 0.03 -8.36 -27.73 0 -0.01 0.08 -0.02zm-0.08 0.02l0 -0.31 0.08 0.29 -0.08 0.02zm0.07 29.53l-0.07 -29.53 0.09 0 0.07 29.53 -0.05 0.04 -0.04 -0.04zm0.09 0l0 0.04 -0.05 0 0.05 -0.04zm-3.81 -0.05l3.76 0 0 0.09 -3.76 0 0 0 0 -0.09z"/>
   </g>
   <path class="fil0" d="M23.57 36.85l6.76 0c0.62,0 1.13,0.5 1.13,1.12l0 0c0,0.62 -0.51,1.13 -1.13,1.13l-6.76 0c-0.62,0 -1.13,-0.51 -1.13,-1.13l0 0c0,-0.62 0.51,-1.12 1.13,-1.12z"/>
   <path class="fil0" d="M23.57 76.36l6.76 0c0.62,0 1.13,-0.51 1.13,-1.13l0 0c0,-0.62 -0.51,-1.12 -1.13,-1.12l-6.76 0c-0.62,0 -1.13,0.5 -1.13,1.12l0 0c0,0.62 0.51,1.13 1.13,1.13z"/>
   <path class="fil0" d="M21.89 43.15l6.76 0c0.62,0 1.13,0.51 1.13,1.12l0 0c0,0.62 -0.51,1.13 -1.13,1.13l-6.76 0c-0.62,0 -1.13,-0.51 -1.13,-1.13l0 0c0,-0.61 0.51,-1.12 1.13,-1.12z"/>
   <path class="fil0" d="M21.73 70.06l6.76 0c0.62,0 1.12,-0.51 1.12,-1.13l0 0c0,-0.62 -0.5,-1.12 -1.12,-1.12l-6.76 0c-0.62,0 -1.13,0.5 -1.13,1.12l0 0c0,0.62 0.51,1.13 1.13,1.13z"/>
   <path class="fil0" d="M25.04 50.59l4.33 0c0.61,0 1.12,0.51 1.12,1.13l0 0c0,0.61 -0.51,1.12 -1.12,1.12l-4.33 0c-0.62,0 -1.12,-0.51 -1.12,-1.12l0 0c0,-0.62 0.5,-1.13 1.12,-1.13z"/>
   <path class="fil0" d="M35.36 62.61l4.33 0c0.61,0 1.12,-0.5 1.12,-1.12l0 0c0,-0.62 -0.51,-1.12 -1.12,-1.12l-4.33 0c-0.62,0 -1.12,0.5 -1.12,1.12l0 0c0,0.62 0.5,1.12 1.12,1.12z"/>
   <path class="fil0" d="M32.54 29.12l6.76 0c0.62,0 1.13,0.51 1.13,1.13l0 0c0,0.61 -0.51,1.12 -1.13,1.12l-6.76 0c-0.62,0 -1.13,-0.51 -1.13,-1.12l0 0c0,-0.62 0.51,-1.13 1.13,-1.13z"/>
   <path class="fil0" d="M32.54 84.09l6.76 0c0.62,0 1.13,-0.51 1.13,-1.13l0 0c0,-0.62 -0.51,-1.12 -1.13,-1.12l-6.76 0c-0.62,0 -1.13,0.5 -1.13,1.12l0 0c0,0.62 0.51,1.13 1.13,1.13z"/>
   <g>
    <path class="fil3" d="M11.79 29.12l27.37 0 0 2.25 -27.37 0 -0.41 -0.08 0.41 -2.17zm0 2.25l-0.21 0 -0.2 -0.08 0.41 0.08zm-9.14 -5.87l9.54 3.7 -0.81 2.09 -9.54 -3.69 0.81 -2.1z"/>
   </g>
   <g>
    <path class="fil3" d="M11.79 84.09l-0.41 -2.18 0.41 -0.07 27.37 0 0 2.25 -27.37 0zm-0.41 -2.18l0.2 -0.07 0.21 0 -0.41 0.07zm-8.73 5.79l-0.81 -2.09 9.54 -3.7 0.81 2.1 -9.54 3.69z"/>
   </g>
   <g>
    <path class="fil3" d="M22.37 36.85l6.42 0 0 2.25 -6.42 0 -0.38 -0.07 0.38 -2.18zm0 2.25l-0.2 0 -0.18 -0.07 0.38 0.07zm-3.52 -3.61l3.9 1.43 -0.76 2.11 -3.91 -1.43 0.39 -2.18 0.38 0.07zm-0.38 -0.07l0.19 0 0.19 0.07 -0.38 -0.07zm-11.25 0l11.25 0 0 2.25 -11.25 0 0 -2.25z"/>
   </g>
   <g>
    <path class="fil3" d="M22.37 76.36l-0.38 -2.18 0.38 -0.07 6.42 0 0 2.25 -6.42 0zm-0.38 -2.18l0.18 -0.07 0.2 0 -0.38 0.07zm-3.14 3.54l-0.38 0.06 -0.39 -2.18 3.91 -1.42 0.76 2.11 -3.9 1.43zm0 0l-0.19 0.06 -0.19 0 0.38 -0.06zm-11.63 0.06l0 -2.24 11.25 0 0 2.24 -11.25 0z"/>
   </g>
   <g>
    <polygon class="fil3" points="15.11,43.15 28.79,43.15 28.79,45.4 15.11,45.4 "/>
   </g>
   <g>
    <polygon class="fil3" points="15.11,70.06 15.11,67.81 27.74,67.81 27.74,70.06 "/>
   </g>
   <g>
    <path class="fil3" d="M23.56 52.84l-0.34 -0.05 0.34 -2.2 5.55 0 0 2.25 -5.55 0zm0 0l-0.17 0 -0.17 -0.05 0.34 0.05zm-3.91 -1.18l0.67 -2.15 3.58 1.13 -0.68 2.15 -3.57 -1.13z"/>
   </g>
   <g>
    <path class="fil3" d="M23.56 60.37l15.68 0 0 2.24 -15.68 0 -0.34 -2.19 0.34 -0.05zm-0.34 0.05l0.17 -0.05 0.17 0 -0.34 0.05zm-3.57 1.13l3.57 -1.13 0.68 2.14 -3.58 1.13 -0.67 -2.14z"/>
   </g>
   <circle class="fil0" cx="19.99" cy="51.06" r="2.25"/>
   <circle class="fil0" cx="19.99" cy="62.14" r="2.25"/>
   <circle class="fil0" cx="15.11" cy="44.27" r="2.25"/>
   <circle class="fil0" cx="15.11" cy="68.93" r="2.25"/>
   <circle class="fil0" cx="7.22" cy="36.55" r="2.25"/>
   <circle class="fil0" cx="7.22" cy="76.66" r="2.25"/>
   <circle class="fil0" cx="2.25" cy="26.55" r="2.25"/>
   <circle class="fil0" cx="2.25" cy="86.65" r="2.25"/>
   <polygon class="fil0" points="45.64,60.37 62.76,60.37 62.76,77.83 45.64,77.83 "/>
   <path class="fil4" d="M53.09 71.82c2.16,0 3.85,-0.32 5.06,-0.96 1.22,-0.64 1.83,-1.58 1.83,-2.82 0,-1.89 -2.51,-3.48 -7.52,-4.76 -7.03,-1.76 -11.69,-3.28 -13.98,-4.56 -5.06,-2.8 -7.59,-7.02 -7.59,-12.67 0,-5.27 2.01,-9.32 6.04,-12.14 4.03,-2.82 9.32,-4.24 15.88,-4.24 6.66,0 11.86,1.57 15.6,4.7 3.38,2.85 5.39,6.69 6.05,11.53l-15.74 0c-0.38,-1.56 -1.39,-2.75 -3.03,-3.55 -1.17,-0.57 -2.39,-0.86 -3.65,-0.86 -3.51,0 -5.27,0.97 -5.27,2.92 0,1.9 2.51,3.51 7.52,4.84 7.17,1.85 11.83,3.37 13.98,4.56 5.06,2.75 7.59,6.81 7.59,12.17 0,5.74 -2.2,10.16 -6.6,13.24 -4.22,2.94 -9.91,4.42 -17.08,4.42 -6.61,0 -11.99,-1.67 -16.16,-4.99 -4.17,-3.32 -6.26,-7.38 -6.26,-12.17l15.88 0c0.47,1.71 1.64,3.08 3.52,4.13 1.45,0.8 2.76,1.21 3.93,1.21z"/>
   <path class="fil0" d="M44.92 81.84l6.77 0c0.62,0 1.12,0.5 1.12,1.12l0 0c0,0.62 -0.5,1.13 -1.12,1.13l-6.77 0c-0.61,0 -1.12,-0.51 -1.12,-1.13l0 0c0,-0.62 0.51,-1.12 1.12,-1.12z"/>
   <path class="fil0" d="M44.92 29.12l6.77 0c0.62,0 1.12,0.51 1.12,1.13l0 0c0,0.61 -0.5,1.12 -1.12,1.12l-6.77 0c-0.61,0 -1.12,-0.51 -1.12,-1.12l0 0c0,-0.62 0.51,-1.13 1.12,-1.13z"/>
   <g>
    <path class="fil3" d="M20.74 93.35l0.81 0.51c-0.38,0.59 -0.89,1.05 -1.54,1.36 -0.64,0.32 -1.38,0.48 -2.2,0.48 -1.22,0 -2.23,-0.34 -3.02,-1.01 -0.8,-0.66 -1.19,-1.51 -1.19,-2.55 0,-1.03 0.39,-1.88 1.19,-2.55 0.79,-0.67 1.8,-1.01 3.02,-1.01 0.75,0 1.44,0.14 2.06,0.42 0.62,0.27 1.12,0.66 1.5,1.17l-0.84 0.5c-0.27,-0.41 -0.64,-0.73 -1.11,-0.95 -0.48,-0.23 -1.02,-0.34 -1.61,-0.34 -0.91,0 -1.66,0.26 -2.27,0.78 -0.6,0.52 -0.9,1.18 -0.9,1.98 0,0.81 0.3,1.47 0.9,1.99 0.61,0.51 1.36,0.77 2.27,0.77 1.3,0 2.27,-0.51 2.93,-1.55zm5.4 0.78c0.6,0.51 1.36,0.77 2.26,0.77 0.91,0 1.66,-0.26 2.27,-0.78 0.6,-0.52 0.9,-1.18 0.9,-1.98 0,-0.8 -0.3,-1.46 -0.9,-1.98 -0.61,-0.52 -1.36,-0.78 -2.27,-0.78 -0.9,0 -1.66,0.26 -2.26,0.78 -0.6,0.52 -0.91,1.18 -0.91,1.98 0,0.81 0.31,1.47 0.91,1.99zm5.29 0.56c-0.8,0.67 -1.81,1.01 -3.03,1.01 -1.21,0 -2.22,-0.34 -3.01,-1.01 -0.8,-0.66 -1.2,-1.51 -1.2,-2.55 0,-1.03 0.4,-1.88 1.2,-2.55 0.79,-0.67 1.8,-1.01 3.01,-1.01 1.22,0 2.23,0.34 3.03,1.01 0.8,0.67 1.2,1.52 1.2,2.55 0,1.04 -0.4,1.89 -1.2,2.55zm7.93 -4.61l-1.05 0c-0.7,0 -1.21,0.14 -1.54,0.42 -0.32,0.26 -0.47,0.62 -0.47,1.09 0,0.47 0.17,0.84 0.53,1.11 0.32,0.23 0.82,0.35 1.49,0.35l1.04 0 0 -2.97zm1.01 0l0 2.97 1.05 0c0.68,0 1.18,-0.12 1.49,-0.35 0.35,-0.27 0.53,-0.64 0.53,-1.11 0,-0.49 -0.16,-0.86 -0.47,-1.09 -0.33,-0.28 -0.84,-0.42 -1.54,-0.42l-1.06 0zm-1.01 3.76l-1.08 0c-0.97,0 -1.7,-0.19 -2.21,-0.57 -0.51,-0.4 -0.77,-0.97 -0.77,-1.73 0,-0.72 0.25,-1.27 0.74,-1.65 0.53,-0.4 1.27,-0.6 2.22,-0.6l1.1 0 0 -0.88 1.01 0 0 0.88 1.11 0c0.95,0 1.69,0.2 2.22,0.6 0.49,0.41 0.74,0.96 0.74,1.65 0,0.76 -0.26,1.34 -0.77,1.73 -0.51,0.38 -1.24,0.57 -2.21,0.57l-1.09 0 0 1.68 -1.01 0 0 -1.68zm10.21 1.68l0 -6.01 -3.43 0 0 -0.78 7.87 0 0 0.78 -3.43 0 0 6.01 -1.01 0zm6.49 0l0 -6.79 0.93 0 3.14 4.16 3.16 -4.16 0.92 0 0 6.79 -1 0 0 -5.3 -3.08 4.02 -3.08 -4.02 0 5.3 -0.99 0zm13.49 -1.39c0.61,0.51 1.36,0.77 2.27,0.77 0.9,0 1.66,-0.26 2.26,-0.78 0.61,-0.52 0.91,-1.18 0.91,-1.98 0,-0.8 -0.3,-1.46 -0.91,-1.98 -0.6,-0.52 -1.36,-0.78 -2.26,-0.78 -0.91,0 -1.66,0.26 -2.27,0.78 -0.6,0.52 -0.9,1.18 -0.9,1.98 0,0.81 0.3,1.47 0.9,1.99zm5.29 0.56c-0.8,0.67 -1.81,1.01 -3.02,1.01 -1.22,0 -2.23,-0.34 -3.02,-1.01 -0.8,-0.66 -1.19,-1.51 -1.19,-2.55 0,-1.03 0.39,-1.88 1.19,-2.55 0.79,-0.67 1.8,-1.01 3.02,-1.01 1.21,0 2.22,0.34 3.02,1.01 0.8,0.67 1.2,1.52 1.2,2.55 0,1.04 -0.4,1.89 -1.2,2.55zm4.64 0.83l0 -6.79 1.03 0 0 2.68 4.8 0 0 -2.68 1.01 0 0 6.79 -1.01 0 0 -3.32 -4.8 0 0 3.32 -1.03 0zm12.67 0l0 -6.01 -3.43 0 0 -0.78 7.87 0 0 0.78 -3.43 0 0 6.01 -1.01 0zm7.65 -2.62l3.58 0 -1.8 -3.01 -1.78 3.01zm-2.62 2.62l3.98 -6.79 0.85 0 4.03 6.79 -1.1 0 -1.11 -1.83 -4.5 0 -1.07 1.83 -1.08 0zm16.36 0l0 -2.46 -1.19 -1.02 -3.02 3.48 -1.23 0 3.52 -4.05 -3.09 -2.75 1.23 0 3.78 3.35 0 -3.37 1.02 0 0 3.37 3.78 -3.35 1.24 0 -3.1 2.75 3.52 4.05 -1.22 0 -3.02 -3.48 -1.2 1.04 0 2.44 -1.02 0z"/>
    <path id="_1_0" class="fil5 str0" d="M20.74 93.35l0.81 0.51c-0.38,0.59 -0.89,1.05 -1.54,1.36 -0.64,0.32 -1.38,0.48 -2.2,0.48 -1.22,0 -2.23,-0.34 -3.02,-1.01 -0.8,-0.66 -1.19,-1.51 -1.19,-2.55 0,-1.03 0.39,-1.88 1.19,-2.55 0.79,-0.67 1.8,-1.01 3.02,-1.01 0.75,0 1.44,0.14 2.06,0.42 0.62,0.27 1.12,0.66 1.5,1.17l-0.84 0.5c-0.27,-0.41 -0.64,-0.73 -1.11,-0.95 -0.48,-0.23 -1.02,-0.34 -1.61,-0.34 -0.91,0 -1.66,0.26 -2.27,0.78 -0.6,0.52 -0.9,1.18 -0.9,1.98 0,0.81 0.3,1.47 0.9,1.99 0.61,0.51 1.36,0.77 2.27,0.77 1.3,0 2.27,-0.51 2.93,-1.55zm5.4 0.78c0.6,0.51 1.36,0.77 2.26,0.77 0.91,0 1.66,-0.26 2.27,-0.78 0.6,-0.52 0.9,-1.18 0.9,-1.98 0,-0.8 -0.3,-1.46 -0.9,-1.98 -0.61,-0.52 -1.36,-0.78 -2.27,-0.78 -0.9,0 -1.66,0.26 -2.26,0.78 -0.6,0.52 -0.91,1.18 -0.91,1.98 0,0.81 0.31,1.47 0.91,1.99zm5.29 0.56c-0.8,0.67 -1.81,1.01 -3.03,1.01 -1.21,0 -2.22,-0.34 -3.01,-1.01 -0.8,-0.66 -1.2,-1.51 -1.2,-2.55 0,-1.03 0.4,-1.88 1.2,-2.55 0.79,-0.67 1.8,-1.01 3.01,-1.01 1.22,0 2.23,0.34 3.03,1.01 0.8,0.67 1.2,1.52 1.2,2.55 0,1.04 -0.4,1.89 -1.2,2.55zm7.93 -4.61l-1.05 0c-0.7,0 -1.21,0.14 -1.54,0.42 -0.32,0.26 -0.47,0.62 -0.47,1.09 0,0.47 0.17,0.84 0.53,1.11 0.32,0.23 0.82,0.35 1.49,0.35l1.04 0 0 -2.97zm1.01 0l0 2.97 1.05 0c0.68,0 1.18,-0.12 1.49,-0.35 0.35,-0.27 0.53,-0.64 0.53,-1.11 0,-0.49 -0.16,-0.86 -0.47,-1.09 -0.33,-0.28 -0.84,-0.42 -1.54,-0.42l-1.06 0zm-1.01 3.76l-1.08 0c-0.97,0 -1.7,-0.19 -2.21,-0.57 -0.51,-0.4 -0.77,-0.97 -0.77,-1.73 0,-0.72 0.25,-1.27 0.74,-1.65 0.53,-0.4 1.27,-0.6 2.22,-0.6l1.1 0 0 -0.88 1.01 0 0 0.88 1.11 0c0.95,0 1.69,0.2 2.22,0.6 0.49,0.41 0.74,0.96 0.74,1.65 0,0.76 -0.26,1.34 -0.77,1.73 -0.51,0.38 -1.24,0.57 -2.21,0.57l-1.09 0 0 1.68 -1.01 0 0 -1.68zm10.21 1.68l0 -6.01 -3.43 0 0 -0.78 7.87 0 0 0.78 -3.43 0 0 6.01 -1.01 0zm6.49 0l0 -6.79 0.93 0 3.14 4.16 3.16 -4.16 0.92 0 0 6.79 -1 0 0 -5.3 -3.08 4.02 -3.08 -4.02 0 5.3 -0.99 0zm13.49 -1.39c0.61,0.51 1.36,0.77 2.27,0.77 0.9,0 1.66,-0.26 2.26,-0.78 0.61,-0.52 0.91,-1.18 0.91,-1.98 0,-0.8 -0.3,-1.46 -0.91,-1.98 -0.6,-0.52 -1.36,-0.78 -2.26,-0.78 -0.91,0 -1.66,0.26 -2.27,0.78 -0.6,0.52 -0.9,1.18 -0.9,1.98 0,0.81 0.3,1.47 0.9,1.99zm5.29 0.56c-0.8,0.67 -1.81,1.01 -3.02,1.01 -1.22,0 -2.23,-0.34 -3.02,-1.01 -0.8,-0.66 -1.19,-1.51 -1.19,-2.55 0,-1.03 0.39,-1.88 1.19,-2.55 0.79,-0.67 1.8,-1.01 3.02,-1.01 1.21,0 2.22,0.34 3.02,1.01 0.8,0.67 1.2,1.52 1.2,2.55 0,1.04 -0.4,1.89 -1.2,2.55zm4.64 0.83l0 -6.79 1.03 0 0 2.68 4.8 0 0 -2.68 1.01 0 0 6.79 -1.01 0 0 -3.32 -4.8 0 0 3.32 -1.03 0zm12.67 0l0 -6.01 -3.43 0 0 -0.78 7.87 0 0 0.78 -3.43 0 0 6.01 -1.01 0zm7.65 -2.62l3.58 0 -1.8 -3.01 -1.78 3.01zm-2.62 2.62l3.98 -6.79 0.85 0 4.03 6.79 -1.1 0 -1.11 -1.83 -4.5 0 -1.07 1.83 -1.08 0zm16.36 0l0 -2.46 -1.19 -1.02 -3.02 3.48 -1.23 0 3.52 -4.05 -3.09 -2.75 1.23 0 3.78 3.35 0 -3.37 1.02 0 0 3.37 3.78 -3.35 1.24 0 -3.1 2.75 3.52 4.05 -1.22 0 -3.02 -3.48 -1.2 1.04 0 2.44 -1.02 0z"/>
   </g>
  </g>
  <g id="_2540687679744">
   <rect class="fil0" x="43.83" y="39.46" width="23.45" height="15.34"/>
   <g>
    <path class="fil1" d="M73.23 83.64l-11.14 0 -3.28 0 0 -0.49c4.14,-0.65 7.63,-1.96 10.45,-3.93 4.4,-3.08 6.6,-7.5 6.6,-13.24 0,-5.36 -2.53,-9.42 -7.59,-12.17 -1.66,-0.92 -4.82,-2.03 -9.46,-3.34l0 -4.57 15.65 0c-0.66,-4.84 -2.67,-8.68 -6.05,-11.53 -2.53,-2.12 -5.73,-3.52 -9.6,-4.2l0 -0.5 3.28 0 11.14 0 8.89 0 8.93 33.65 8.92 -33.65 20.03 0 0 53.97 -14.9 0 -0.07 -29.38 -8.5 27.65 -11.25 -0.07 -8.36 -27.73 0.07 29.53 -3.76 0z"/>
    <path id="_1_1" class="fil2" d="M62.09 83.59l11.14 0 0 0.09 -11.14 0 0 0 0 -0.09zm-3.28 0l3.28 0 0 0.09 -3.28 0 -0.05 -0.04 0.05 -0.05zm0 0.09l-0.05 0 0 -0.04 0.05 0.04zm0.04 -0.53l0 0.49 -0.09 0 0 -0.49 0.04 -0.04 0.05 0.04zm-0.09 0l0 -0.04 0.04 0 -0.04 0.04zm10.47 -3.97l0.05 0.08 0 0 -0.26 0.18 -0.27 0.18 -0.28 0.18 -0.28 0.17 -0.28 0.17 -0.29 0.16 -0.29 0.16 -0.29 0.15 -0.3 0.16 -0.3 0.14 -0.31 0.15 -0.31 0.14 -0.31 0.14 -0.32 0.13 -0.32 0.13 -0.33 0.12 -0.32 0.12 -0.34 0.12 -0.33 0.11 -0.35 0.11 -0.34 0.11 -0.35 0.1 -0.35 0.1 -0.36 0.09 -0.36 0.09 -0.36 0.09 -0.37 0.08 -0.37 0.08 -0.38 0.07 -0.37 0.08 -0.39 0.06 -0.38 0.07 -0.02 -0.09 0.39 -0.07 0.38 -0.06 0.38 -0.07 0.37 -0.08 0.37 -0.07 0.37 -0.09 0.36 -0.08 0.36 -0.09 0.36 -0.1 0.35 -0.09 0.34 -0.11 0.35 -0.1 0.34 -0.11 0.33 -0.11 0.33 -0.12 0.33 -0.12 0.33 -0.13 0.32 -0.12 0.31 -0.14 0.32 -0.13 0.3 -0.14 0.31 -0.15 0.3 -0.14 0.3 -0.16 0.29 -0.15 0.29 -0.16 0.28 -0.16 0.28 -0.17 0.28 -0.17 0.28 -0.18 0.27 -0.17 0.26 -0.19 0 0zm0.05 0.08l0 0 0 0 0 0zm6.54 -13.28l0.09 0 0 0 -0.01 0.54 -0.02 0.52 -0.03 0.52 -0.04 0.52 -0.06 0.5 -0.07 0.5 -0.09 0.49 -0.1 0.48 -0.1 0.47 -0.13 0.47 -0.13 0.45 -0.15 0.45 -0.16 0.45 -0.18 0.43 -0.19 0.43 -0.2 0.42 -0.21 0.41 -0.23 0.4 -0.24 0.4 -0.25 0.38 -0.27 0.39 -0.27 0.37 -0.29 0.36 -0.31 0.36 -0.32 0.35 -0.33 0.34 -0.34 0.33 -0.35 0.33 -0.37 0.31 -0.38 0.31 -0.4 0.3 -0.41 0.3 -0.05 -0.08 0.41 -0.29 0.39 -0.3 0.38 -0.31 0.37 -0.31 0.35 -0.33 0.34 -0.33 0.33 -0.34 0.31 -0.34 0.31 -0.36 0.29 -0.36 0.27 -0.37 0.26 -0.37 0.26 -0.39 0.23 -0.39 0.23 -0.4 0.21 -0.41 0.2 -0.42 0.19 -0.42 0.17 -0.44 0.16 -0.43 0.15 -0.45 0.13 -0.46 0.13 -0.46 0.11 -0.47 0.09 -0.48 0.09 -0.49 0.07 -0.49 0.06 -0.5 0.04 -0.51 0.03 -0.52 0.02 -0.53 0.01 -0.53 0 0zm-7.57 -12.13l0.04 -0.08 0 0 0.47 0.26 0.46 0.27 0.43 0.28 0.43 0.28 0.41 0.3 0.39 0.3 0.38 0.31 0.36 0.31 0.35 0.33 0.34 0.33 0.32 0.34 0.3 0.35 0.29 0.35 0.28 0.36 0.26 0.37 0.24 0.38 0.23 0.39 0.22 0.39 0.2 0.4 0.19 0.41 0.17 0.42 0.15 0.42 0.15 0.43 0.12 0.44 0.11 0.45 0.1 0.45 0.08 0.47 0.07 0.46 0.05 0.48 0.04 0.49 0.02 0.49 0.01 0.5 -0.09 0 -0.01 -0.5 -0.02 -0.49 -0.04 -0.48 -0.05 -0.47 -0.07 -0.47 -0.08 -0.46 -0.09 -0.45 -0.12 -0.45 -0.12 -0.43 -0.14 -0.43 -0.15 -0.42 -0.18 -0.42 -0.18 -0.4 -0.2 -0.4 -0.21 -0.39 -0.23 -0.38 -0.25 -0.38 -0.25 -0.36 -0.28 -0.36 -0.29 -0.36 -0.3 -0.34 -0.32 -0.34 -0.33 -0.33 -0.35 -0.32 -0.36 -0.31 -0.38 -0.31 -0.39 -0.3 -0.4 -0.29 -0.43 -0.29 -0.43 -0.27 -0.45 -0.27 -0.47 -0.26 0 0zm0 0l0 0 0 0 0 0zm-9.49 -3.38l0.09 0 -0.03 -0.05 0.43 0.13 0.43 0.12 0.41 0.12 0.4 0.12 0.4 0.11 0.39 0.12 0.38 0.12 0.37 0.11 0.36 0.11 0.35 0.12 0.35 0.11 0.33 0.11 0.33 0.1 0.32 0.11 0.3 0.11 0.3 0.1 0.3 0.11 0.28 0.1 0.27 0.1 0.27 0.1 0.26 0.1 0.24 0.1 0.24 0.1 0.23 0.09 0.23 0.1 0.21 0.09 0.2 0.09 0.2 0.1 0.19 0.09 0.17 0.08 0.17 0.09 0.16 0.09 -0.04 0.08 -0.16 -0.09 -0.17 -0.09 -0.17 -0.08 -0.19 -0.09 -0.19 -0.1 -0.21 -0.09 -0.21 -0.09 -0.22 -0.1 -0.23 -0.09 -0.24 -0.1 -0.25 -0.1 -0.25 -0.09 -0.27 -0.1 -0.27 -0.11 -0.28 -0.1 -0.3 -0.1 -0.29 -0.11 -0.31 -0.1 -0.32 -0.11 -0.33 -0.11 -0.33 -0.11 -0.35 -0.11 -0.35 -0.11 -0.36 -0.11 -0.37 -0.12 -0.38 -0.11 -0.39 -0.12 -0.39 -0.12 -0.41 -0.12 -0.41 -0.12 -0.42 -0.12 -0.43 -0.12 -0.04 -0.04zm0.04 0.04l-0.04 -0.01 0 -0.03 0.04 0.04zm0.05 -4.61l0 4.57 -0.09 0 0 -4.57 0.05 -0.04 0.04 0.04zm-0.09 0l0 -0.04 0.05 0 -0.05 0.04zm15.7 0.05l-15.65 0 0 -0.09 15.65 0 0.04 0.04 -0.04 0.05zm0.04 -0.05l0.01 0.05 -0.05 0 0.04 -0.05zm-6.11 -11.49l0.05 -0.07 0 0 0.32 0.27 0.3 0.28 0.3 0.28 0.29 0.29 0.28 0.29 0.27 0.3 0.27 0.3 0.25 0.32 0.25 0.32 0.25 0.32 0.23 0.33 0.22 0.33 0.22 0.34 0.21 0.35 0.2 0.35 0.19 0.36 0.19 0.36 0.18 0.38 0.17 0.37 0.16 0.38 0.15 0.39 0.15 0.39 0.14 0.4 0.12 0.41 0.13 0.41 0.11 0.42 0.11 0.42 0.09 0.43 0.09 0.43 0.08 0.44 0.08 0.45 0.06 0.45 -0.09 0.01 -0.06 -0.45 -0.08 -0.44 -0.08 -0.44 -0.09 -0.43 -0.09 -0.43 -0.11 -0.42 -0.11 -0.42 -0.12 -0.41 -0.13 -0.4 -0.14 -0.4 -0.14 -0.39 -0.15 -0.38 -0.17 -0.38 -0.16 -0.38 -0.18 -0.37 -0.19 -0.36 -0.19 -0.35 -0.2 -0.36 -0.21 -0.34 -0.21 -0.34 -0.22 -0.33 -0.24 -0.33 -0.24 -0.32 -0.25 -0.32 -0.25 -0.31 -0.26 -0.3 -0.28 -0.3 -0.28 -0.29 -0.28 -0.29 -0.3 -0.28 -0.3 -0.27 -0.32 -0.27 0.01 0zm0.05 -0.07l0 0 0.12 0.1 -0.12 -0.1zm-9.68 -4.17l0.09 0 -0.03 -0.05 0.36 0.07 0.35 0.07 0.36 0.07 0.35 0.08 0.34 0.08 0.34 0.09 0.34 0.09 0.34 0.1 0.33 0.1 0.32 0.11 0.32 0.1 0.32 0.12 0.32 0.11 0.31 0.13 0.31 0.12 0.3 0.13 0.3 0.13 0.29 0.14 0.29 0.14 0.29 0.15 0.28 0.15 0.28 0.16 0.28 0.16 0.27 0.16 0.27 0.17 0.26 0.17 0.26 0.17 0.26 0.18 0.25 0.19 0.25 0.19 0.24 0.19 0.24 0.2 -0.05 0.07 -0.24 -0.2 -0.25 -0.19 -0.24 -0.19 -0.25 -0.18 -0.26 -0.18 -0.26 -0.18 -0.26 -0.17 -0.27 -0.16 -0.27 -0.17 -0.27 -0.16 -0.28 -0.15 -0.28 -0.15 -0.29 -0.15 -0.29 -0.14 -0.29 -0.13 -0.3 -0.14 -0.3 -0.13 -0.3 -0.12 -0.32 -0.12 -0.31 -0.12 -0.31 -0.11 -0.33 -0.11 -0.32 -0.1 -0.33 -0.1 -0.33 -0.1 -0.34 -0.09 -0.34 -0.09 -0.34 -0.08 -0.35 -0.08 -0.35 -0.07 -0.36 -0.07 -0.36 -0.07 -0.04 -0.04zm0.04 0.04l-0.04 -0.01 0 -0.03 0.04 0.04zm0.05 -0.54l0 0.5 -0.09 0 0 -0.5 0.05 -0.04 0.04 0.04zm-0.09 0l0 -0.04 0.05 0 -0.05 0.04zm3.33 0.05l-3.28 0 0 -0.09 3.28 0 0 0 0 0.09zm11.14 0l-11.14 0 0 -0.09 11.14 0 0 0 0 0.09zm8.89 0l-8.89 0 0 -0.09 8.89 0 0.05 0.03 -0.05 0.06zm0 -0.09l0.04 0 0.01 0.03 -0.05 -0.03zm8.88 33.71l-8.92 -33.65 0.09 -0.03 8.92 33.65 0 0.03 -0.09 0zm0.09 0l-0.04 0.16 -0.05 -0.16 0.09 0zm8.93 -33.65l-8.93 33.65 -0.09 -0.03 8.93 -33.65 0.04 -0.03 0.05 0.06zm-0.09 -0.03l0.01 -0.03 0.03 0 -0.04 0.03zm20.07 0.06l-20.03 0 0 -0.09 20.03 0 0.04 0.04 -0.04 0.05zm0 -0.09l0.04 0 0 0.04 -0.04 -0.04zm-0.04 54.01l0 -53.97 0.08 0 0 53.97 -0.04 0.04 -0.04 -0.04zm0.08 0l0 0.04 -0.04 0 0.04 -0.04zm-14.94 -0.05l14.9 0 0 0.09 -14.9 0 -0.04 -0.04 0.04 -0.05zm0 0.09l-0.04 0 0 -0.04 0.04 0.04zm-0.02 -29.42l0.07 29.38 -0.09 0 -0.07 -29.38 0 -0.02 0.09 0.02zm-0.09 -0.02l0.09 -0.28 0 0.3 -0.09 -0.02zm-8.5 27.66l8.5 -27.66 0.08 0.03 -8.5 27.65 -0.04 0.04 -0.04 -0.06zm0.08 0.02l-0.01 0.04 -0.03 0 0.04 -0.04zm-11.29 -0.13l11.25 0.08 0 0.09 -11.25 -0.08 -0.04 -0.03 0.04 -0.06zm0 0.09l-0.03 0 -0.01 -0.03 0.04 0.03zm-8.32 -27.79l8.37 27.73 -0.09 0.03 -8.36 -27.73 0 -0.01 0.08 -0.02zm-0.08 0.02l0 -0.31 0.08 0.29 -0.08 0.02zm0.07 29.53l-0.07 -29.53 0.09 0 0.07 29.53 -0.05 0.04 -0.04 -0.04zm0.09 0l0 0.04 -0.05 0 0.05 -0.04zm-3.81 -0.05l3.76 0 0 0.09 -3.76 0 0 0 0 -0.09z"/>
   </g>
   <path class="fil0" d="M23.57 36.85l6.76 0c0.62,0 1.13,0.5 1.13,1.12l0 0c0,0.62 -0.51,1.13 -1.13,1.13l-6.76 0c-0.62,0 -1.13,-0.51 -1.13,-1.13l0 0c0,-0.62 0.51,-1.12 1.13,-1.12z"/>
   <path class="fil0" d="M23.57 76.36l6.76 0c0.62,0 1.13,-0.51 1.13,-1.13l0 0c0,-0.62 -0.51,-1.12 -1.13,-1.12l-6.76 0c-0.62,0 -1.13,0.5 -1.13,1.12l0 0c0,0.62 0.51,1.13 1.13,1.13z"/>
   <path class="fil0" d="M21.89 43.15l6.76 0c0.62,0 1.13,0.51 1.13,1.12l0 0c0,0.62 -0.51,1.13 -1.13,1.13l-6.76 0c-0.62,0 -1.13,-0.51 -1.13,-1.13l0 0c0,-0.61 0.51,-1.12 1.13,-1.12z"/>
   <path class="fil0" d="M21.73 70.06l6.76 0c0.62,0 1.12,-0.51 1.12,-1.13l0 0c0,-0.62 -0.5,-1.12 -1.12,-1.12l-6.76 0c-0.62,0 -1.13,0.5 -1.13,1.12l0 0c0,0.62 0.51,1.13 1.13,1.13z"/>
   <path class="fil0" d="M25.04 50.59l4.33 0c0.61,0 1.12,0.51 1.12,1.13l0 0c0,0.61 -0.51,1.12 -1.12,1.12l-4.33 0c-0.62,0 -1.12,-0.51 -1.12,-1.12l0 0c0,-0.62 0.5,-1.13 1.12,-1.13z"/>
   <path class="fil0" d="M35.36 62.61l4.33 0c0.61,0 1.12,-0.5 1.12,-1.12l0 0c0,-0.62 -0.51,-1.12 -1.12,-1.12l-4.33 0c-0.62,0 -1.12,0.5 -1.12,1.12l0 0c0,0.62 0.5,1.12 1.12,1.12z"/>
   <path class="fil0" d="M32.54 29.12l6.76 0c0.62,0 1.13,0.51 1.13,1.13l0 0c0,0.61 -0.51,1.12 -1.13,1.12l-6.76 0c-0.62,0 -1.13,-0.51 -1.13,-1.12l0 0c0,-0.62 0.51,-1.13 1.13,-1.13z"/>
   <path class="fil0" d="M32.54 84.09l6.76 0c0.62,0 1.13,-0.51 1.13,-1.13l0 0c0,-0.62 -0.51,-1.12 -1.13,-1.12l-6.76 0c-0.62,0 -1.13,0.5 -1.13,1.12l0 0c0,0.62 0.51,1.13 1.13,1.13z"/>
   <g>
    <path class="fil3" d="M11.79 29.12l27.37 0 0 2.25 -27.37 0 -0.41 -0.08 0.41 -2.17zm0 2.25l-0.21 0 -0.2 -0.08 0.41 0.08zm-9.14 -5.87l9.54 3.7 -0.81 2.09 -9.54 -3.69 0.81 -2.1z"/>
   </g>
   <g>
    <path class="fil3" d="M11.79 84.09l-0.41 -2.18 0.41 -0.07 27.37 0 0 2.25 -27.37 0zm-0.41 -2.18l0.2 -0.07 0.21 0 -0.41 0.07zm-8.73 5.79l-0.81 -2.09 9.54 -3.7 0.81 2.1 -9.54 3.69z"/>
   </g>
   <g>
    <path class="fil3" d="M22.37 36.85l6.42 0 0 2.25 -6.42 0 -0.38 -0.07 0.38 -2.18zm0 2.25l-0.2 0 -0.18 -0.07 0.38 0.07zm-3.52 -3.61l3.9 1.43 -0.76 2.11 -3.91 -1.43 0.39 -2.18 0.38 0.07zm-0.38 -0.07l0.19 0 0.19 0.07 -0.38 -0.07zm-11.25 0l11.25 0 0 2.25 -11.25 0 0 -2.25z"/>
   </g>
   <g>
    <path class="fil3" d="M22.37 76.36l-0.38 -2.18 0.38 -0.07 6.42 0 0 2.25 -6.42 0zm-0.38 -2.18l0.18 -0.07 0.2 0 -0.38 0.07zm-3.14 3.54l-0.38 0.06 -0.39 -2.18 3.91 -1.42 0.76 2.11 -3.9 1.43zm0 0l-0.19 0.06 -0.19 0 0.38 -0.06zm-11.63 0.06l0 -2.24 11.25 0 0 2.24 -11.25 0z"/>
   </g>
   <g>
    <polygon class="fil3" points="15.11,43.15 28.79,43.15 28.79,45.4 15.11,45.4 "/>
   </g>
   <g>
    <polygon class="fil3" points="15.11,70.06 15.11,67.81 27.74,67.81 27.74,70.06 "/>
   </g>
   <g>
    <path class="fil3" d="M23.56 52.84l-0.34 -0.05 0.34 -2.2 5.55 0 0 2.25 -5.55 0zm0 0l-0.17 0 -0.17 -0.05 0.34 0.05zm-3.91 -1.18l0.67 -2.15 3.58 1.13 -0.68 2.15 -3.57 -1.13z"/>
   </g>
   <g>
    <path class="fil3" d="M23.56 60.37l15.68 0 0 2.24 -15.68 0 -0.34 -2.19 0.34 -0.05zm-0.34 0.05l0.17 -0.05 0.17 0 -0.34 0.05zm-3.57 1.13l3.57 -1.13 0.68 2.14 -3.58 1.13 -0.67 -2.14z"/>
   </g>
   <circle class="fil0" cx="19.99" cy="51.06" r="2.25"/>
   <circle class="fil0" cx="19.99" cy="62.14" r="2.25"/>
   <circle class="fil0" cx="15.11" cy="44.27" r="2.25"/>
   <circle class="fil0" cx="15.11" cy="68.93" r="2.25"/>
   <circle class="fil0" cx="7.22" cy="36.55" r="2.25"/>
   <circle class="fil0" cx="7.22" cy="76.66" r="2.25"/>
   <circle class="fil0" cx="2.25" cy="26.55" r="2.25"/>
   <circle class="fil0" cx="2.25" cy="86.65" r="2.25"/>
   <polygon class="fil0" points="45.64,60.37 62.76,60.37 62.76,77.83 45.64,77.83 "/>
   <path class="fil4" d="M53.09 71.82c2.16,0 3.85,-0.32 5.06,-0.96 1.22,-0.64 1.83,-1.58 1.83,-2.82 0,-1.89 -2.51,-3.48 -7.52,-4.76 -7.03,-1.76 -11.69,-3.28 -13.98,-4.56 -5.06,-2.8 -7.59,-7.02 -7.59,-12.67 0,-5.27 2.01,-9.32 6.04,-12.14 4.03,-2.82 9.32,-4.24 15.88,-4.24 6.66,0 11.86,1.57 15.6,4.7 3.38,2.85 5.39,6.69 6.05,11.53l-15.74 0c-0.38,-1.56 -1.39,-2.75 -3.03,-3.55 -1.17,-0.57 -2.39,-0.86 -3.65,-0.86 -3.51,0 -5.27,0.97 -5.27,2.92 0,1.9 2.51,3.51 7.52,4.84 7.17,1.85 11.83,3.37 13.98,4.56 5.06,2.75 7.59,6.81 7.59,12.17 0,5.74 -2.2,10.16 -6.6,13.24 -4.22,2.94 -9.91,4.42 -17.08,4.42 -6.61,0 -11.99,-1.67 -16.16,-4.99 -4.17,-3.32 -6.26,-7.38 -6.26,-12.17l15.88 0c0.47,1.71 1.64,3.08 3.52,4.13 1.45,0.8 2.76,1.21 3.93,1.21z"/>
   <path class="fil0" d="M44.92 81.84l6.77 0c0.62,0 1.12,0.5 1.12,1.12l0 0c0,0.62 -0.5,1.13 -1.12,1.13l-6.77 0c-0.61,0 -1.12,-0.51 -1.12,-1.13l0 0c0,-0.62 0.51,-1.12 1.12,-1.12z"/>
   <path class="fil0" d="M44.92 29.12l6.77 0c0.62,0 1.12,0.51 1.12,1.13l0 0c0,0.61 -0.5,1.12 -1.12,1.12l-6.77 0c-0.61,0 -1.12,-0.51 -1.12,-1.12l0 0c0,-0.62 0.51,-1.13 1.12,-1.13z"/>
   <g>
    <path class="fil3" d="M20.74 93.35l0.81 0.51c-0.38,0.59 -0.89,1.05 -1.54,1.36 -0.64,0.32 -1.38,0.48 -2.2,0.48 -1.22,0 -2.23,-0.34 -3.02,-1.01 -0.8,-0.66 -1.19,-1.51 -1.19,-2.55 0,-1.03 0.39,-1.88 1.19,-2.55 0.79,-0.67 1.8,-1.01 3.02,-1.01 0.75,0 1.44,0.14 2.06,0.42 0.62,0.27 1.12,0.66 1.5,1.17l-0.84 0.5c-0.27,-0.41 -0.64,-0.73 -1.11,-0.95 -0.48,-0.23 -1.02,-0.34 -1.61,-0.34 -0.91,0 -1.66,0.26 -2.27,0.78 -0.6,0.52 -0.9,1.18 -0.9,1.98 0,0.81 0.3,1.47 0.9,1.99 0.61,0.51 1.36,0.77 2.27,0.77 1.3,0 2.27,-0.51 2.93,-1.55zm5.4 0.78c0.6,0.51 1.36,0.77 2.26,0.77 0.91,0 1.66,-0.26 2.27,-0.78 0.6,-0.52 0.9,-1.18 0.9,-1.98 0,-0.8 -0.3,-1.46 -0.9,-1.98 -0.61,-0.52 -1.36,-0.78 -2.27,-0.78 -0.9,0 -1.66,0.26 -2.26,0.78 -0.6,0.52 -0.91,1.18 -0.91,1.98 0,0.81 0.31,1.47 0.91,1.99zm5.29 0.56c-0.8,0.67 -1.81,1.01 -3.03,1.01 -1.21,0 -2.22,-0.34 -3.01,-1.01 -0.8,-0.66 -1.2,-1.51 -1.2,-2.55 0,-1.03 0.4,-1.88 1.2,-2.55 0.79,-0.67 1.8,-1.01 3.01,-1.01 1.22,0 2.23,0.34 3.03,1.01 0.8,0.67 1.2,1.52 1.2,2.55 0,1.04 -0.4,1.89 -1.2,2.55zm7.93 -4.61l-1.05 0c-0.7,0 -1.21,0.14 -1.54,0.42 -0.32,0.26 -0.47,0.62 -0.47,1.09 0,0.47 0.17,0.84 0.53,1.11 0.32,0.23 0.82,0.35 1.49,0.35l1.04 0 0 -2.97zm1.01 0l0 2.97 1.05 0c0.68,0 1.18,-0.12 1.49,-0.35 0.35,-0.27 0.53,-0.64 0.53,-1.11 0,-0.49 -0.16,-0.86 -0.47,-1.09 -0.33,-0.28 -0.84,-0.42 -1.54,-0.42l-1.06 0zm-1.01 3.76l-1.08 0c-0.97,0 -1.7,-0.19 -2.21,-0.57 -0.51,-0.4 -0.77,-0.97 -0.77,-1.73 0,-0.72 0.25,-1.27 0.74,-1.65 0.53,-0.4 1.27,-0.6 2.22,-0.6l1.1 0 0 -0.88 1.01 0 0 0.88 1.11 0c0.95,0 1.69,0.2 2.22,0.6 0.49,0.41 0.74,0.96 0.74,1.65 0,0.76 -0.26,1.34 -0.77,1.73 -0.51,0.38 -1.24,0.57 -2.21,0.57l-1.09 0 0 1.68 -1.01 0 0 -1.68zm10.21 1.68l0 -6.01 -3.43 0 0 -0.78 7.87 0 0 0.78 -3.43 0 0 6.01 -1.01 0zm6.49 0l0 -6.79 0.93 0 3.14 4.16 3.16 -4.16 0.92 0 0 6.79 -1 0 0 -5.3 -3.08 4.02 -3.08 -4.02 0 5.3 -0.99 0zm13.49 -1.39c0.61,0.51 1.36,0.77 2.27,0.77 0.9,0 1.66,-0.26 2.26,-0.78 0.61,-0.52 0.91,-1.18 0.91,-1.98 0,-0.8 -0.3,-1.46 -0.91,-1.98 -0.6,-0.52 -1.36,-0.78 -2.26,-0.78 -0.91,0 -1.66,0.26 -2.27,0.78 -0.6,0.52 -0.9,1.18 -0.9,1.98 0,0.81 0.3,1.47 0.9,1.99zm5.29 0.56c-0.8,0.67 -1.81,1.01 -3.02,1.01 -1.22,0 -2.23,-0.34 -3.02,-1.01 -0.8,-0.66 -1.19,-1.51 -1.19,-2.55 0,-1.03 0.39,-1.88 1.19,-2.55 0.79,-0.67 1.8,-1.01 3.02,-1.01 1.21,0 2.22,0.34 3.02,1.01 0.8,0.67 1.2,1.52 1.2,2.55 0,1.04 -0.4,1.89 -1.2,2.55zm4.64 0.83l0 -6.79 1.03 0 0 2.68 4.8 0 0 -2.68 1.01 0 0 6.79 -1.01 0 0 -3.32 -4.8 0 0 3.32 -1.03 0zm12.67 0l0 -6.01 -3.43 0 0 -0.78 7.87 0 0 0.78 -3.43 0 0 6.01 -1.01 0zm7.65 -2.62l3.58 0 -1.8 -3.01 -1.78 3.01zm-2.62 2.62l3.98 -6.79 0.85 0 4.03 6.79 -1.1 0 -1.11 -1.83 -4.5 0 -1.07 1.83 -1.08 0zm16.36 0l0 -2.46 -1.19 -1.02 -3.02 3.48 -1.23 0 3.52 -4.05 -3.09 -2.75 1.23 0 3.78 3.35 0 -3.37 1.02 0 0 3.37 3.78 -3.35 1.24 0 -3.1 2.75 3.52 4.05 -1.22 0 -3.02 -3.48 -1.2 1.04 0 2.44 -1.02 0z"/>
    <path id="_1_2" class="fil5 str0" d="M20.74 93.35l0.81 0.51c-0.38,0.59 -0.89,1.05 -1.54,1.36 -0.64,0.32 -1.38,0.48 -2.2,0.48 -1.22,0 -2.23,-0.34 -3.02,-1.01 -0.8,-0.66 -1.19,-1.51 -1.19,-2.55 0,-1.03 0.39,-1.88 1.19,-2.55 0.79,-0.67 1.8,-1.01 3.02,-1.01 0.75,0 1.44,0.14 2.06,0.42 0.62,0.27 1.12,0.66 1.5,1.17l-0.84 0.5c-0.27,-0.41 -0.64,-0.73 -1.11,-0.95 -0.48,-0.23 -1.02,-0.34 -1.61,-0.34 -0.91,0 -1.66,0.26 -2.27,0.78 -0.6,0.52 -0.9,1.18 -0.9,1.98 0,0.81 0.3,1.47 0.9,1.99 0.61,0.51 1.36,0.77 2.27,0.77 1.3,0 2.27,-0.51 2.93,-1.55zm5.4 0.78c0.6,0.51 1.36,0.77 2.26,0.77 0.91,0 1.66,-0.26 2.27,-0.78 0.6,-0.52 0.9,-1.18 0.9,-1.98 0,-0.8 -0.3,-1.46 -0.9,-1.98 -0.61,-0.52 -1.36,-0.78 -2.27,-0.78 -0.9,0 -1.66,0.26 -2.26,0.78 -0.6,0.52 -0.91,1.18 -0.91,1.98 0,0.81 0.31,1.47 0.91,1.99zm5.29 0.56c-0.8,0.67 -1.81,1.01 -3.03,1.01 -1.21,0 -2.22,-0.34 -3.01,-1.01 -0.8,-0.66 -1.2,-1.51 -1.2,-2.55 0,-1.03 0.4,-1.88 1.2,-2.55 0.79,-0.67 1.8,-1.01 3.01,-1.01 1.22,0 2.23,0.34 3.03,1.01 0.8,0.67 1.2,1.52 1.2,2.55 0,1.04 -0.4,1.89 -1.2,2.55zm7.93 -4.61l-1.05 0c-0.7,0 -1.21,0.14 -1.54,0.42 -0.32,0.26 -0.47,0.62 -0.47,1.09 0,0.47 0.17,0.84 0.53,1.11 0.32,0.23 0.82,0.35 1.49,0.35l1.04 0 0 -2.97zm1.01 0l0 2.97 1.05 0c0.68,0 1.18,-0.12 1.49,-0.35 0.35,-0.27 0.53,-0.64 0.53,-1.11 0,-0.49 -0.16,-0.86 -0.47,-1.09 -0.33,-0.28 -0.84,-0.42 -1.54,-0.42l-1.06 0zm-1.01 3.76l-1.08 0c-0.97,0 -1.7,-0.19 -2.21,-0.57 -0.51,-0.4 -0.77,-0.97 -0.77,-1.73 0,-0.72 0.25,-1.27 0.74,-1.65 0.53,-0.4 1.27,-0.6 2.22,-0.6l1.1 0 0 -0.88 1.01 0 0 0.88 1.11 0c0.95,0 1.69,0.2 2.22,0.6 0.49,0.41 0.74,0.96 0.74,1.65 0,0.76 -0.26,1.34 -0.77,1.73 -0.51,0.38 -1.24,0.57 -2.21,0.57l-1.09 0 0 1.68 -1.01 0 0 -1.68zm10.21 1.68l0 -6.01 -3.43 0 0 -0.78 7.87 0 0 0.78 -3.43 0 0 6.01 -1.01 0zm6.49 0l0 -6.79 0.93 0 3.14 4.16 3.16 -4.16 0.92 0 0 6.79 -1 0 0 -5.3 -3.08 4.02 -3.08 -4.02 0 5.3 -0.99 0zm13.49 -1.39c0.61,0.51 1.36,0.77 2.27,0.77 0.9,0 1.66,-0.26 2.26,-0.78 0.61,-0.52 0.91,-1.18 0.91,-1.98 0,-0.8 -0.3,-1.46 -0.91,-1.98 -0.6,-0.52 -1.36,-0.78 -2.26,-0.78 -0.91,0 -1.66,0.26 -2.27,0.78 -0.6,0.52 -0.9,1.18 -0.9,1.98 0,0.81 0.3,1.47 0.9,1.99zm5.29 0.56c-0.8,0.67 -1.81,1.01 -3.02,1.01 -1.22,0 -2.23,-0.34 -3.02,-1.01 -0.8,-0.66 -1.19,-1.51 -1.19,-2.55 0,-1.03 0.39,-1.88 1.19,-2.55 0.79,-0.67 1.8,-1.01 3.02,-1.01 1.21,0 2.22,0.34 3.02,1.01 0.8,0.67 1.2,1.52 1.2,2.55 0,1.04 -0.4,1.89 -1.2,2.55zm4.64 0.83l0 -6.79 1.03 0 0 2.68 4.8 0 0 -2.68 1.01 0 0 6.79 -1.01 0 0 -3.32 -4.8 0 0 3.32 -1.03 0zm12.67 0l0 -6.01 -3.43 0 0 -0.78 7.87 0 0 0.78 -3.43 0 0 6.01 -1.01 0zm7.65 -2.62l3.58 0 -1.8 -3.01 -1.78 3.01zm-2.62 2.62l3.98 -6.79 0.85 0 4.03 6.79 -1.1 0 -1.11 -1.83 -4.5 0 -1.07 1.83 -1.08 0zm16.36 0l0 -2.46 -1.19 -1.02 -3.02 3.48 -1.23 0 3.52 -4.05 -3.09 -2.75 1.23 0 3.78 3.35 0 -3.37 1.02 0 0 3.37 3.78 -3.35 1.24 0 -3.1 2.75 3.52 4.05 -1.22 0 -3.02 -3.48 -1.2 1.04 0 2.44 -1.02 0z"/>
   </g>
  </g>
 </g>
</svg>
